<?xml version="1.0" encoding="UTF-8" standalone="no"?>
<svg
    xmlns:dc="http://purl.org/dc/elements/1.1/"
    xmlns:cc="http://creativecommons.org/ns#"
    xmlns:rdf="http://www.w3.org/1999/02/22-rdf-syntax-ns#"
    xmlns:svg="http://www.w3.org/2000/svg"
    xmlns="http://www.w3.org/2000/svg"
    viewBox="0 0 484.95468 517.08136"
    height="517.08136"
    width="484.95468"
    xml:space="preserve"
    id="svg2"
    version="1.1">
    <metadata id="metadata8">
        <rdf:RDF>
            <cc:Work rdf:about="">
                <dc:format>image/svg+xml</dc:format>
                <dc:type rdf:resource="http://purl.org/dc/dcmitype/StillImage" />
            </cc:Work>
        </rdf:RDF>
    </metadata>
    <defs id="defs6">
        <clipPath
            id="clipPath18"
            clipPathUnits="userSpaceOnUse">
            <path
                id="path16"
                d="M 126.26,387.811 C 56.529,387.811 0,331.283 0,261.551 v 0 c 0,-16.553 3.191,-32.36 8.982,-46.845 v 0 l 65.505,34.059 c -1.008,4.097 -1.546,8.378 -1.546,12.786 v 0 c 0,29.448 23.871,53.319 53.319,53.319 v 0 c 16.037,0 30.42,-7.081 40.194,-18.286 v 0 l 65.495,34.054 c -22.551,34.427 -61.46,57.173 -105.689,57.173 z M 11.932,261.551 c 0,15.439 3.022,30.411 8.98,44.498 v 0 c 5.758,13.612 14.003,25.84 24.507,36.343 v 0 c 10.503,10.504 22.731,18.749 36.343,24.507 v 0 c 14.088,5.958 29.059,8.98 44.498,8.98 v 0 c 19.32,0 38.409,-4.906 55.202,-14.188 v 0 c 12.407,-6.857 23.491,-16.036 32.583,-26.913 v 0 l -45.408,-23.61 c -11.741,10.026 -26.74,15.635 -42.377,15.635 v 0 c -8.804,0 -17.35,-1.727 -25.402,-5.132 v 0 c -7.772,-3.288 -14.75,-7.991 -20.738,-13.98 v 0 C 74.131,301.702 69.428,294.726 66.14,286.954 v 0 c -3.406,-8.053 -5.133,-16.599 -5.133,-25.403 v 0 c 0,-2.069 0.098,-4.137 0.294,-6.193 v 0 L 15.859,231.73 c -2.609,9.669 -3.927,19.653 -3.927,29.821 m 165.858,13.738 c 1.166,-4.384 1.791,-8.988 1.791,-13.738 v 0 c 0,-29.448 -23.873,-53.32 -53.321,-53.32 v 0 c -16.021,0 -30.39,7.067 -40.164,18.253 v 0 L 20.989,191.83 c 0.002,-0.003 0.004,-0.008 0.007,-0.011 v 0 C 43.609,157.753 82.309,135.291 126.26,135.291 v 0 c 4.727,0 9.39,0.268 13.982,0.774 v 0 L 177.448,0 363.716,374.25 Z m -26.127,-73.858 c 7.772,3.287 14.749,7.99 20.738,13.979 v 0 c 5.989,5.989 10.692,12.966 13.979,20.738 v 0 c 3.406,8.053 5.133,16.599 5.133,25.403 v 0 c 0,2.445 -0.136,4.886 -0.408,7.308 v 0 l 145.327,77.35 -155.726,-312.883 -31.643,115.716 -10.128,-1.116 c -4.231,-0.466 -8.495,-0.703 -12.675,-0.703 v 0 c -33.971,0 -65.77,14.97 -87.388,40.609 v 0 l 45.117,24.014 c 11.724,-9.972 26.683,-15.548 42.271,-15.548 v 0 c 8.804,0 17.351,1.727 25.403,5.133 m -68.019,60.12 c 0,-23.537 19.08,-42.617 42.616,-42.617 v 0 c 23.537,0 42.617,19.08 42.617,42.617 v 0 c 0,23.537 -19.08,42.617 -42.617,42.617 v 0 c -23.536,0 -42.616,-19.08 -42.616,-42.617 m 11.932,0 c 0,16.919 13.765,30.683 30.684,30.683 v 0 c 16.919,0 30.684,-13.764 30.684,-30.683 v 0 c 0,-16.919 -13.765,-30.684 -30.684,-30.684 v 0 c -16.919,0 -30.684,13.765 -30.684,30.684" />
        </clipPath>
        <linearGradient
            id="linearGradient30"
            spreadMethod="pad"
            gradientTransform="matrix(0,387.81122,387.81122,0,181.85805,0)"
            gradientUnits="userSpaceOnUse"
            y2="0"
            x2="1"
            y1="0"
            x1="0">
            <stop
                id="stop24"
                offset="0"
                style="stop-opacity:1;stop-color:#FFFFFF" />
            <stop
                id="stop26"
                offset="0.5145727"
                style="stop-opacity:1;stop-color:#FFFFFF" />
            <stop
                id="stop28"
                offset="1"
                style="stop-opacity:1;stop-color:#FFFFFF" />
        </linearGradient>
    </defs>
    <g
        transform="matrix(1.3333333,0,0,-1.3333333,0,517.08133)"
        id="g10">
        <g id="g12">
            <g
                clip-path="url(#clipPath18)"
                id="g14">
                <g id="g20">
                    <g id="g22">
                        <path
                            id="path32"
                            style="fill:url(#linearGradient30);stroke:none"
                            d="M 126.26,387.811 C 56.529,387.811 0,331.283 0,261.551 v 0 c 0,-16.553 3.191,-32.36 8.982,-46.845 v 0 l 65.505,34.059 c -1.008,4.097 -1.546,8.378 -1.546,12.786 v 0 c 0,29.448 23.871,53.319 53.319,53.319 v 0 c 16.037,0 30.42,-7.081 40.194,-18.286 v 0 l 65.495,34.054 c -22.551,34.427 -61.46,57.173 -105.689,57.173 z M 11.932,261.551 c 0,15.439 3.022,30.411 8.98,44.498 v 0 c 5.758,13.612 14.003,25.84 24.507,36.343 v 0 c 10.503,10.504 22.731,18.749 36.343,24.507 v 0 c 14.088,5.958 29.059,8.98 44.498,8.98 v 0 c 19.32,0 38.409,-4.906 55.202,-14.188 v 0 c 12.407,-6.857 23.491,-16.036 32.583,-26.913 v 0 l -45.408,-23.61 c -11.741,10.026 -26.74,15.635 -42.377,15.635 v 0 c -8.804,0 -17.35,-1.727 -25.402,-5.132 v 0 c -7.772,-3.288 -14.75,-7.991 -20.738,-13.98 v 0 C 74.131,301.702 69.428,294.726 66.14,286.954 v 0 c -3.406,-8.053 -5.133,-16.599 -5.133,-25.403 v 0 c 0,-2.069 0.098,-4.137 0.294,-6.193 v 0 L 15.859,231.73 c -2.609,9.669 -3.927,19.653 -3.927,29.821 m 165.858,13.738 c 1.166,-4.384 1.791,-8.988 1.791,-13.738 v 0 c 0,-29.448 -23.873,-53.32 -53.321,-53.32 v 0 c -16.021,0 -30.39,7.067 -40.164,18.253 v 0 L 20.989,191.83 c 0.002,-0.003 0.004,-0.008 0.007,-0.011 v 0 C 43.609,157.753 82.309,135.291 126.26,135.291 v 0 c 4.727,0 9.39,0.268 13.982,0.774 v 0 L 177.448,0 363.716,374.25 Z m -26.127,-73.858 c 7.772,3.287 14.749,7.99 20.738,13.979 v 0 c 5.989,5.989 10.692,12.966 13.979,20.738 v 0 c 3.406,8.053 5.133,16.599 5.133,25.403 v 0 c 0,2.445 -0.136,4.886 -0.408,7.308 v 0 l 145.327,77.35 -155.726,-312.883 -31.643,115.716 -10.128,-1.116 c -4.231,-0.466 -8.495,-0.703 -12.675,-0.703 v 0 c -33.971,0 -65.77,14.97 -87.388,40.609 v 0 l 45.117,24.014 c 11.724,-9.972 26.683,-15.548 42.271,-15.548 v 0 c 8.804,0 17.351,1.727 25.403,5.133 m -68.019,60.12 c 0,-23.537 19.08,-42.617 42.616,-42.617 v 0 c 23.537,0 42.617,19.08 42.617,42.617 v 0 c 0,23.537 -19.08,42.617 -42.617,42.617 v 0 c -23.536,0 -42.616,-19.08 -42.616,-42.617 m 11.932,0 c 0,16.919 13.765,30.683 30.684,30.683 v 0 c 16.919,0 30.684,-13.764 30.684,-30.683 v 0 c 0,-16.919 -13.765,-30.684 -30.684,-30.684 v 0 c -16.919,0 -30.684,13.765 -30.684,30.684" />
                    </g>
                </g>
            </g>
        </g>
    </g>
</svg>
