<?xml version="1.0" encoding="UTF-8" standalone="no"?>
<svg
   xmlns:dc="http://purl.org/dc/elements/1.1/"
   xmlns:cc="http://creativecommons.org/ns#"
   xmlns:rdf="http://www.w3.org/1999/02/22-rdf-syntax-ns#"
   xmlns:svg="http://www.w3.org/2000/svg"
   xmlns="http://www.w3.org/2000/svg"
   viewBox="0 0 631.45331 578.81335"
   height="578.81335"
   width="631.45331"
   xml:space="preserve"
   id="svg2"
   version="1.1"><metadata
     id="metadata8"><rdf:RDF><cc:Work
         rdf:about=""><dc:format>image/svg+xml</dc:format><dc:type
           rdf:resource="http://purl.org/dc/dcmitype/StillImage" /></cc:Work></rdf:RDF></metadata><defs
     id="defs6" /><g
     transform="matrix(1.3333333,0,0,-1.3333333,0,578.81333)"
     id="g10"><g
       transform="scale(0.1)"
       id="g12"><path
         id="path14"
         style="fill:#FFFFFF;fill-opacity:1;fill-rule:nonzero;stroke:none"
         d="m 2440.53,2729.52 c -308.71,0 -558.97,-250.26 -558.97,-558.97 0,-308.72 250.26,-558.98 558.97,-558.98 308.72,0 558.98,250.26 558.98,558.98 0,308.71 -250.26,558.97 -558.98,558.97" /><path
         id="path16"
         style="fill:#FFFFFF;fill-opacity:1;fill-rule:nonzero;stroke:none"
         d="m 496.367,3481.34 c 83.957,124.24 180.281,241 286.324,347.03 L 679.027,3932.03 C 566.383,3819.42 464.063,3695.39 374.879,3563.41 284.91,3430.22 207.645,3287.87 145.184,3140.25 81.5586,2989.77 32.7148,2832.41 0,2672.52 l 143.645,-29.36 c 30.765,150.38 76.726,298.43 136.578,439.96 58.754,138.92 131.492,272.9 216.144,398.22" /><path
         id="path18"
         style="fill:#FFFFFF;fill-opacity:1;fill-rule:nonzero;stroke:none"
         d="M 4600.86,1257.97 C 4542.09,1119.05 4469.37,985.07 4384.7,859.75 4300.83,735.621 4204.5,618.852 4098.37,512.719 3992.19,406.559 3875.44,310.23 3751.34,226.398 L 3833.4,104.91 c 131.83,89.02 255.86,191.36 368.63,304.149 112.74,112.722 215.06,236.75 304.15,368.621 89.97,133.148 167.25,275.55 229.7,423.16 l -135.02,57.13" /><path
         id="path20"
         style="fill:#FFFFFF;fill-opacity:1;fill-rule:nonzero;stroke:none"
         d="m 2440.53,256.57 c -1055.37,0 -1913.987,858.62 -1913.987,1913.99 0,1055.38 858.617,1913.99 1913.987,1913.99 1055.38,0 1913.99,-858.61 1913.99,-1913.99 0,-1055.37 -858.61,-1913.99 -1913.99,-1913.99 z M 4611.1,2170.56 c 0,1196.84 -973.71,2170.57 -2170.57,2170.57 C 1243.68,4341.13 269.965,3367.4 269.965,2170.56 269.965,973.73 1243.68,0 2440.53,0 3637.39,0 4611.1,973.73 4611.1,2170.56" /><path
         id="path22"
         style="fill:#FFFFFF;fill-opacity:1;fill-rule:nonzero;stroke:none"
         d="m 834.273,1491.96 c 87.805,-207.57 213.477,-394.03 373.567,-554.101 l 103.67,103.661 c -146.65,146.69 -261.79,317.43 -342.186,507.57 l -135.051,-57.13" /><path
         id="path24"
         style="fill:#FFFFFF;fill-opacity:1;fill-rule:nonzero;stroke:none"
         d="m 2440.53,3767.23 c 215.56,0 424.65,-42.2 621.47,-125.46 190.13,-80.43 360.89,-195.55 507.56,-342.2 l 103.66,103.66 c -160.08,160.08 -346.5,285.75 -554.09,373.56 -214.98,90.95 -443.3,137.06 -678.6,137.06 -235.28,0 -463.58,-46.11 -678.6,-137.06 l 57.13,-135.02 c 196.84,83.26 405.93,125.46 621.47,125.46" /><path
         id="path26"
         style="fill:#FFFFFF;fill-opacity:1;fill-rule:nonzero;stroke:none"
         d="m 2440.53,2936.07 c 397.37,0 724.77,-304.39 761.82,-692.2 h 698.28 C 3862.3,3016.05 3222.07,3632.5 2440.53,3632.5 1659,3632.5 1018.77,3016.05 980.438,2243.87 h 698.282 c 37.05,387.81 364.45,692.2 761.81,692.2" /><path
         id="path28"
         style="fill:#FFFFFF;fill-opacity:1;fill-rule:nonzero;stroke:none"
         d="m 2440.53,1405.02 c -397.37,0 -724.77,304.4 -761.81,692.24 H 980.438 C 1018.76,1325.05 1659,708.59 2440.53,708.59 c 781.54,0 1421.77,616.46 1460.1,1388.67 H 3202.35 C 3165.3,1709.42 2837.9,1405.02 2440.53,1405.02" /></g></g></svg>
